<?xml version="1.0" encoding="UTF-8"?>
<svg version="1.1" xmlns="http://www.w3.org/2000/svg" width="64" height="64">
<path d="M0 0 C5.28 0 10.56 0 16 0 C16 1.32 16 2.64 16 4 C17.32 4 18.64 4 20 4 C20 6.64 20 9.28 20 12 C21.32 12 22.64 12 24 12 C24 14.64 24 17.28 24 20 C22.68 20 21.36 20 20 20 C20 21.32 20 22.64 20 24 C21.32 24 22.64 24 24 24 C24 25.32 24 26.64 24 28 C25.32 28 26.64 28 28 28 C28 29.32 28 30.64 28 32 C29.32 32 30.64 32 32 32 C32 34.64 32 37.28 32 40 C33.32 40 34.64 40 36 40 C36 43.96 36 47.92 36 52 C34.68 52 33.36 52 32 52 C32 53.32 32 54.64 32 56 C30.68 56 29.36 56 28 56 C28 57.32 28 58.64 28 60 C14.8 60 1.6 60 -12 60 C-12 58.68 -12 57.36 -12 56 C-13.32 56 -14.64 56 -16 56 C-16 54.68 -16 53.36 -16 52 C-17.32 52 -18.64 52 -20 52 C-20 48.04 -20 44.08 -20 40 C-18.68 40 -17.36 40 -16 40 C-16 37.36 -16 34.72 -16 32 C-14.68 32 -13.36 32 -12 32 C-12 30.68 -12 29.36 -12 28 C-10.68 28 -9.36 28 -8 28 C-8 26.68 -8 25.36 -8 24 C-6.68 24 -5.36 24 -4 24 C-4 22.68 -4 21.36 -4 20 C-5.32 20 -6.64 20 -8 20 C-8 17.36 -8 14.72 -8 12 C-6.68 12 -5.36 12 -4 12 C-4 9.36 -4 6.72 -4 4 C-2.68 4 -1.36 4 0 4 C0 2.68 0 1.36 0 0 Z " fill="#E2695F" transform="translate(24,4)"/>
<path d="M0 0 C3.96 0 7.92 0 12 0 C12 1.32 12 2.64 12 4 C13.32 4 14.64 4 16 4 C16 6.64 16 9.28 16 12 C19.96 12 23.92 12 28 12 C28 15.96 28 19.92 28 24 C26.68 24 25.36 24 24 24 C24 25.32 24 26.64 24 28 C22.68 28 21.36 28 20 28 C20 26.68 20 25.36 20 24 C9.44 24 -1.12 24 -12 24 C-12 22.68 -12 21.36 -12 20 C-10.68 20 -9.36 20 -8 20 C-8 18.68 -8 17.36 -8 16 C-9.32 16 -10.64 16 -12 16 C-12 14.68 -12 13.36 -12 12 C-10.68 12 -9.36 12 -8 12 C-8 10.68 -8 9.36 -8 8 C-6.68 8 -5.36 8 -4 8 C-4 6.68 -4 5.36 -4 4 C-2.68 4 -1.36 4 0 4 C0 2.68 0 1.36 0 0 Z " fill="#B83C4D" transform="translate(32,32)"/>
<path d="M0 0 C5.28 0 10.56 0 16 0 C16 1.32 16 2.64 16 4 C17.32 4 18.64 4 20 4 C20 6.64 20 9.28 20 12 C21.32 12 22.64 12 24 12 C24 14.64 24 17.28 24 20 C22.68 20 21.36 20 20 20 C20 21.32 20 22.64 20 24 C12.08 24 4.16 24 -4 24 C-4 22.68 -4 21.36 -4 20 C-5.32 20 -6.64 20 -8 20 C-8 17.36 -8 14.72 -8 12 C-6.68 12 -5.36 12 -4 12 C-4 9.36 -4 6.72 -4 4 C-2.68 4 -1.36 4 0 4 C0 2.68 0 1.36 0 0 Z " fill="#662D39" transform="translate(24,4)"/>
<path d="M0 0 C10.56 0 21.12 0 32 0 C32 1.32 32 2.64 32 4 C33.32 4 34.64 4 36 4 C36 5.32 36 6.64 36 8 C37.32 8 38.64 8 40 8 C40 10.64 40 13.28 40 16 C37.36 16 34.72 16 32 16 C32 13.36 32 10.72 32 8 C30.68 8 29.36 8 28 8 C28 6.68 28 5.36 28 4 C20.08 4 12.16 4 4 4 C4 5.32 4 6.64 4 8 C2.68 8 1.36 8 0 8 C0 10.64 0 13.28 0 16 C-1.32 16 -2.64 16 -4 16 C-4 12.04 -4 8.08 -4 4 C-2.68 4 -1.36 4 0 4 C0 2.68 0 1.36 0 0 Z " fill="#B9B7BA" transform="translate(16,28)"/>
<path d="M0 0 C1.32 0 2.64 0 4 0 C4 2.64 4 5.28 4 8 C7.96 8 11.92 8 16 8 C16 11.96 16 15.92 16 20 C14.68 20 13.36 20 12 20 C12 21.32 12 22.64 12 24 C10.68 24 9.36 24 8 24 C8 22.68 8 21.36 8 20 C5.36 20 2.72 20 0 20 C0 18.68 0 17.36 0 16 C-1.32 16 -2.64 16 -4 16 C-4 14.68 -4 13.36 -4 12 C-2.68 12 -1.36 12 0 12 C0 10.68 0 9.36 0 8 C-1.32 8 -2.64 8 -4 8 C-4 6.68 -4 5.36 -4 4 C-2.68 4 -1.36 4 0 4 C0 2.68 0 1.36 0 0 Z " fill="#662D39" transform="translate(44,36)"/>
<path d="M0 0 C5.28 0 10.56 0 16 0 C16 1.32 16 2.64 16 4 C17.32 4 18.64 4 20 4 C20 6.64 20 9.28 20 12 C18.68 12 17.36 12 16 12 C16 13.32 16 14.64 16 16 C14.68 16 13.36 16 12 16 C12 13.36 12 10.72 12 8 C9.36 8 6.72 8 4 8 C4 10.64 4 13.28 4 16 C2.68 16 1.36 16 0 16 C0 14.68 0 13.36 0 12 C-1.32 12 -2.64 12 -4 12 C-4 9.36 -4 6.72 -4 4 C-2.68 4 -1.36 4 0 4 C0 2.68 0 1.36 0 0 Z " fill="#3B2C4A" transform="translate(24,4)"/>
<path d="M0 0 C13.2 0 26.4 0 40 0 C40 1.32 40 2.64 40 4 C26.8 4 13.6 4 0 4 C0 2.68 0 1.36 0 0 Z " fill="#17111A" transform="translate(12,60)"/>
<path d="M0 0 C13.2 0 26.4 0 40 0 C40 1.32 40 2.64 40 4 C26.8 4 13.6 4 0 4 C0 2.68 0 1.36 0 0 Z " fill="#FFFFFF" transform="translate(12,56)"/>
<path d="M0 0 C1.32 0 2.64 0 4 0 C4 7.92 4 15.84 4 24 C2.68 24 1.36 24 0 24 C0 22.68 0 21.36 0 20 C-1.32 20 -2.64 20 -4 20 C-4 16.04 -4 12.08 -4 8 C-2.68 8 -1.36 8 0 8 C0 5.36 0 2.72 0 0 Z " fill="#C5C3C5" transform="translate(8,36)"/>
<path d="M0 0 C2.64 0 5.28 0 8 0 C8 3.96 8 7.92 8 12 C6.68 12 5.36 12 4 12 C4 13.32 4 14.64 4 16 C2.68 16 1.36 16 0 16 C0 10.72 0 5.44 0 0 Z " fill="#C5C3C5" transform="translate(52,44)"/>
<path d="M0 0 C2.64 0 5.28 0 8 0 C8 2.64 8 5.28 8 8 C6.68 8 5.36 8 4 8 C4 9.32 4 10.64 4 12 C1.36 12 -1.28 12 -4 12 C-4 9.36 -4 6.72 -4 4 C-2.68 4 -1.36 4 0 4 C0 2.68 0 1.36 0 0 Z " fill="#8C737B" transform="translate(40,16)"/>
<path d="M0 0 C2.64 0 5.28 0 8 0 C8 1.32 8 2.64 8 4 C9.32 4 10.64 4 12 4 C12 6.64 12 9.28 12 12 C9.36 12 6.72 12 4 12 C4 10.68 4 9.36 4 8 C2.68 8 1.36 8 0 8 C0 5.36 0 2.72 0 0 Z " fill="#B7A59E" transform="translate(16,16)"/>
<path d="M0 0 C3.96 0 7.92 0 12 0 C12 1.32 12 2.64 12 4 C10.68 4 9.36 4 8 4 C8 5.32 8 6.64 8 8 C6.68 8 5.36 8 4 8 C4 6.68 4 5.36 4 4 C2.68 4 1.36 4 0 4 C0 2.68 0 1.36 0 0 Z " fill="#E87863" transform="translate(20,32)"/>
<path d="M0 0 C5.28 0 10.56 0 16 0 C16 1.32 16 2.64 16 4 C10.72 4 5.44 4 0 4 C0 2.68 0 1.36 0 0 Z " fill="#17111A" transform="translate(24,4)"/>
<path d="M0 0 C1.32 0 2.64 0 4 0 C4 3.96 4 7.92 4 12 C2.68 12 1.36 12 0 12 C0 8.04 0 4.08 0 0 Z " fill="#17111A" transform="translate(56,44)"/>
<path d="M0 0 C1.32 0 2.64 0 4 0 C4 3.96 4 7.92 4 12 C2.68 12 1.36 12 0 12 C0 8.04 0 4.08 0 0 Z " fill="#17111A" transform="translate(4,44)"/>
<path d="M0 0 C1.32 0 2.64 0 4 0 C4 2.64 4 5.28 4 8 C2.68 8 1.36 8 0 8 C0 5.36 0 2.72 0 0 Z " fill="#17111A" transform="translate(52,36)"/>
<path d="M0 0 C1.32 0 2.64 0 4 0 C4 2.64 4 5.28 4 8 C2.68 8 1.36 8 0 8 C0 5.36 0 2.72 0 0 Z " fill="#FFFFFF" transform="translate(48,36)"/>
<path d="M0 0 C1.32 0 2.64 0 4 0 C4 2.64 4 5.28 4 8 C2.68 8 1.36 8 0 8 C0 5.36 0 2.72 0 0 Z " fill="#FFFFFF" transform="translate(12,36)"/>
<path d="M0 0 C1.32 0 2.64 0 4 0 C4 2.64 4 5.28 4 8 C2.68 8 1.36 8 0 8 C0 5.36 0 2.72 0 0 Z " fill="#17111A" transform="translate(8,36)"/>
<path d="M0 0 C2.64 0 5.28 0 8 0 C8 1.32 8 2.64 8 4 C5.36 4 2.72 4 0 4 C0 2.68 0 1.36 0 0 Z " fill="#8B888C" transform="translate(12,32)"/>
<path d="M0 0 C1.32 0 2.64 0 4 0 C4 2.64 4 5.28 4 8 C2.68 8 1.36 8 0 8 C0 5.36 0 2.72 0 0 Z " fill="#17111A" transform="translate(44,16)"/>
<path d="M0 0 C1.32 0 2.64 0 4 0 C4 2.64 4 5.28 4 8 C2.68 8 1.36 8 0 8 C0 5.36 0 2.72 0 0 Z " fill="#17111A" transform="translate(16,16)"/>
<path d="M0 0 C1.32 0 2.64 0 4 0 C4 2.64 4 5.28 4 8 C2.68 8 1.36 8 0 8 C0 5.36 0 2.72 0 0 Z " fill="#AE5B39" transform="translate(28,12)"/>
<path d="M0 0 C1.32 0 2.64 0 4 0 C4 2.64 4 5.28 4 8 C2.68 8 1.36 8 0 8 C0 5.36 0 2.72 0 0 Z " fill="#17111A" transform="translate(40,8)"/>
<path d="M0 0 C1.32 0 2.64 0 4 0 C4 2.64 4 5.28 4 8 C2.68 8 1.36 8 0 8 C0 5.36 0 2.72 0 0 Z " fill="#17111A" transform="translate(20,8)"/>
</svg>
